<svg width="1900" height="945" viewBox="0 0 1900 945" fill="none" xmlns="http://www.w3.org/2000/svg">
<rect width="1900" height="945" fill="#E5E5E5"/>
<g id="animation">
<rect width="1900" height="945" fill="#FDF7F1"/>
<path id="M" d="M892.228 481.541C892.228 462.649 892.486 449.493 892.486 449.341H892.228C892.108 449.476 888.798 457.05 884.014 467.237L874.033 488.001H863.915L854.192 467.49C849.133 457.05 845.84 449.476 845.84 449.341H845.343C845.343 449.476 845.6 462.649 845.6 481.541V509H829V422H847.967L869.317 465.011H869.695L890.805 422H909V509H892.194L892.228 481.541Z" fill="#5FB2C4"/>
<path id="D" d="M1037.52 422C1062.66 422 1079 439.039 1079 465.863C1079 492.686 1062.78 509 1038.07 509H1006V422H1037.52ZM1036.65 493.479C1050.84 493.479 1062.23 485.398 1062.23 466.133C1062.23 445.99 1050.93 437.453 1036.65 437.453H1022.83V493.395L1036.65 493.479Z" fill="#5FB2C4"/>
<path id="shape-covering-d" d="M1004 418H1027V426.667L1004 444V418Z" fill="#FDF7F1"/>
<g id="batter">
<g id="B">
<mask id="path-4-inside-1_0_1" fill="white">
<path d="M851.621 559.084C855.318 559.395 858.754 561.1 861.213 563.848C863.673 566.595 864.969 570.173 864.832 573.839C864.832 583.546 858.262 589 847.068 589H828.983V532.875H844.712C855.013 532.875 860.94 538.169 860.94 546.341C860.94 554.513 855.673 558.043 851.621 558.855V559.084ZM845.283 557.972C852.424 557.972 857.94 554.283 857.94 546.588C857.94 539.687 852.835 535.681 844.319 535.681H832.072V557.972H845.283ZM847.157 586.212C855.905 586.212 861.743 582.046 861.743 573.945C861.743 565.438 854.781 560.637 846.747 560.637H832.072V586.194L847.157 586.212Z"/>
</mask>
<path d="M851.621 559.084C855.318 559.395 858.754 561.1 861.213 563.848C863.673 566.595 864.969 570.173 864.832 573.839C864.832 583.546 858.262 589 847.068 589H828.983V532.875H844.712C855.013 532.875 860.94 538.169 860.94 546.341C860.94 554.513 855.673 558.043 851.621 558.855V559.084ZM845.283 557.972C852.424 557.972 857.94 554.283 857.94 546.588C857.94 539.687 852.835 535.681 844.319 535.681H832.072V557.972H845.283ZM847.157 586.212C855.905 586.212 861.743 582.046 861.743 573.945C861.743 565.438 854.781 560.637 846.747 560.637H832.072V586.194L847.157 586.212Z" fill="#D16046" stroke="#FDF7F1" stroke-width="0.5" mask="url(#path-4-inside-1_0_1)"/>
</g>
<g id="A">
<mask id="path-5-inside-2_0_1" fill="white">
<path d="M879.403 571.668L872.737 589H869.519L891.304 532.875H894.593L916.29 589H913.054L906.387 571.668H879.403ZM898.748 551.865C896.662 546.571 893.055 536.316 892.966 536.228H892.807C892.807 536.316 889.041 546.412 887.025 551.795L880.447 568.862H905.203L898.748 551.865Z"/>
</mask>
<path d="M879.403 571.668L872.737 589H869.519L891.304 532.875H894.593L916.29 589H913.054L906.387 571.668H879.403ZM898.748 551.865C896.662 546.571 893.055 536.316 892.966 536.228H892.807C892.807 536.316 889.041 546.412 887.025 551.795L880.447 568.862H905.203L898.748 551.865Z" fill="#D16046" stroke="#FDF7F1" stroke-width="0.5" mask="url(#path-5-inside-2_0_1)"/>
</g>
<g id="T">
<mask id="path-6-inside-3_0_1" fill="white">
<path d="M942.741 535.751V589H939.712V535.751H921.747V532.875H960.723V535.751H942.741Z"/>
</mask>
<path d="M942.741 535.751V589H939.712V535.751H921.747V532.875H960.723V535.751H942.741Z" fill="#D16046" stroke="#FDF7F1" stroke-width="0.5" mask="url(#path-6-inside-3_0_1)"/>
</g>
<g id="T_2">
<mask id="path-7-inside-4_0_1" fill="white">
<path d="M986.832 535.751V589H983.742V535.751H965.4V532.875H1005.16V535.751H986.832Z"/>
</mask>
<path d="M986.832 535.751V589H983.742V535.751H965.4V532.875H1005.16V535.751H986.832Z" fill="#D16046" stroke="#FDF7F1" stroke-width="0.5" mask="url(#path-7-inside-4_0_1)"/>
</g>
<g id="E">
<mask id="path-8-inside-5_0_1" fill="white">
<path d="M1009.83 532.875H1041.79V535.751H1012.77V557.884H1035.93V560.778H1012.77V586.106H1041.72V589H1009.83V532.875Z"/>
</mask>
<path d="M1009.83 532.875H1041.79V535.751H1012.77V557.884H1035.93V560.778H1012.77V586.106H1041.72V589H1009.83V532.875Z" fill="#D16046" stroke="#FDF7F1" stroke-width="0.5" mask="url(#path-8-inside-5_0_1)"/>
</g>
<g id="R">
<mask id="path-9-inside-6_0_1" fill="white">
<path d="M1062.94 564.856C1061.76 564.944 1058.74 564.944 1057.71 564.944H1050.27V589H1047.25V532.875H1060.36C1072.1 532.875 1078.9 539.034 1078.9 549.306C1078.9 558.608 1073.67 563.179 1066.15 564.379L1079.21 589H1075.72L1062.94 564.856ZM1060.95 562.208C1069.67 562.208 1075.86 559.084 1075.86 549.306C1075.86 540.093 1069.83 535.751 1060.17 535.751H1050.27V562.226L1060.95 562.208Z"/>
</mask>
<path d="M1062.94 564.856C1061.76 564.944 1058.74 564.944 1057.71 564.944H1050.27V589H1047.25V532.875H1060.36C1072.1 532.875 1078.9 539.034 1078.9 549.306C1078.9 558.608 1073.67 563.179 1066.15 564.379L1079.21 589H1075.72L1062.94 564.856ZM1060.95 562.208C1069.67 562.208 1075.86 559.084 1075.86 549.306C1075.86 540.093 1069.83 535.751 1060.17 535.751H1050.27V562.226L1060.95 562.208Z" fill="#D16046" stroke="#FDF7F1" stroke-width="0.5" mask="url(#path-9-inside-6_0_1)"/>
</g>
</g>
<g id="dark-brown-wave">
<mask id="mask0_0_1" style="mask-type:alpha" maskUnits="userSpaceOnUse" x="828" y="532" width="252" height="57">
<g id="batter_2">
<g id="B_2">
<mask id="path-10-inside-7_0_1" fill="white">
<path d="M851.622 558.941C855.319 559.251 858.755 560.957 861.214 563.704C863.674 566.451 864.97 570.029 864.833 573.696C864.833 583.403 858.263 588.857 847.069 588.857H828.984V532.731H844.713C855.014 532.731 860.941 538.026 860.941 546.198C860.941 554.369 855.674 557.899 851.622 558.711V558.941ZM845.284 557.829C852.425 557.829 857.941 554.14 857.941 546.445C857.941 539.544 852.836 535.537 844.32 535.537H832.073V557.829H845.284ZM847.158 586.068C855.906 586.068 861.744 581.903 861.744 573.802C861.744 565.294 854.782 560.494 846.748 560.494H832.073V586.05L847.158 586.068Z"/>
</mask>
<path d="M851.622 558.941C855.319 559.251 858.755 560.957 861.214 563.704C863.674 566.451 864.97 570.029 864.833 573.696C864.833 583.403 858.263 588.857 847.069 588.857H828.984V532.731H844.713C855.014 532.731 860.941 538.026 860.941 546.198C860.941 554.369 855.674 557.899 851.622 558.711V558.941ZM845.284 557.829C852.425 557.829 857.941 554.14 857.941 546.445C857.941 539.544 852.836 535.537 844.32 535.537H832.073V557.829H845.284ZM847.158 586.068C855.906 586.068 861.744 581.903 861.744 573.802C861.744 565.294 854.782 560.494 846.748 560.494H832.073V586.05L847.158 586.068Z" fill="#94705A" stroke="#94705A" stroke-width="2" mask="url(#path-10-inside-7_0_1)"/>
</g>
<g id="A_2">
<mask id="path-11-inside-8_0_1" fill="white">
<path d="M879.404 571.525L872.738 588.857H869.52L891.305 532.731H894.594L916.291 588.857H913.055L906.388 571.525H879.404ZM898.749 551.722C896.663 546.427 893.056 536.173 892.967 536.084H892.808C892.808 536.173 889.041 546.268 887.026 551.651L880.448 568.718H905.204L898.749 551.722Z"/>
</mask>
<path d="M879.404 571.525L872.738 588.857H869.52L891.305 532.731H894.594L916.291 588.857H913.055L906.388 571.525H879.404ZM898.749 551.722C896.663 546.427 893.056 536.173 892.967 536.084H892.808C892.808 536.173 889.041 546.268 887.026 551.651L880.448 568.718H905.204L898.749 551.722Z" fill="#94705A" stroke="#94705A" stroke-width="2" mask="url(#path-11-inside-8_0_1)"/>
</g>
<g id="T_3">
<mask id="path-12-inside-9_0_1" fill="white">
<path d="M942.742 535.608V588.857H939.713V535.608H921.748V532.731H960.724V535.608H942.742Z"/>
</mask>
<path d="M942.742 535.608V588.857H939.713V535.608H921.748V532.731H960.724V535.608H942.742Z" fill="#94705A" stroke="#94705A" stroke-width="2" mask="url(#path-12-inside-9_0_1)"/>
</g>
<g id="T_4">
<mask id="path-13-inside-10_0_1" fill="white">
<path d="M986.833 535.608V588.857H983.743V535.608H965.401V532.731H1005.16V535.608H986.833Z"/>
</mask>
<path d="M986.833 535.608V588.857H983.743V535.608H965.401V532.731H1005.16V535.608H986.833Z" fill="#94705A" stroke="#94705A" stroke-width="2" mask="url(#path-13-inside-10_0_1)"/>
</g>
<g id="E_2">
<mask id="path-14-inside-11_0_1" fill="white">
<path d="M1009.83 532.731H1041.79V535.608H1012.77V557.74H1035.93V560.635H1012.77V585.962H1041.72V588.857H1009.83V532.731Z"/>
</mask>
<path d="M1009.83 532.731H1041.79V535.608H1012.77V557.74H1035.93V560.635H1012.77V585.962H1041.72V588.857H1009.83V532.731Z" fill="#94705A" stroke="#94705A" stroke-width="2" mask="url(#path-14-inside-11_0_1)"/>
</g>
<g id="R_2">
<mask id="path-15-inside-12_0_1" fill="white">
<path d="M1062.94 564.712C1061.76 564.8 1058.74 564.8 1057.71 564.8H1050.27V588.857H1047.25V532.731H1060.36C1072.1 532.731 1078.9 538.891 1078.9 549.163C1078.9 558.464 1073.67 563.035 1066.15 564.235L1079.21 588.857H1075.72L1062.94 564.712ZM1060.96 562.065C1069.67 562.065 1075.86 558.941 1075.86 549.163C1075.86 539.95 1069.83 535.608 1060.17 535.608H1050.27V562.082L1060.96 562.065Z"/>
</mask>
<path d="M1062.94 564.712C1061.76 564.8 1058.74 564.8 1057.71 564.8H1050.27V588.857H1047.25V532.731H1060.36C1072.1 532.731 1078.9 538.891 1078.9 549.163C1078.9 558.464 1073.67 563.035 1066.15 564.235L1079.21 588.857H1075.72L1062.94 564.712ZM1060.96 562.065C1069.67 562.065 1075.86 558.941 1075.86 549.163C1075.86 539.95 1069.83 535.608 1060.17 535.608H1050.27V562.082L1060.96 562.065Z" fill="#94705A" stroke="#94705A" stroke-width="2" mask="url(#path-15-inside-12_0_1)"/>
</g>
</g>
</mask>
<g mask="url(#mask0_0_1)">
<g id="batter_3">
<g id="B_3">
<mask id="path-16-inside-13_0_1" fill="white">
<path d="M851.622 558.941C855.319 559.251 858.755 560.957 861.214 563.704C863.674 566.451 864.97 570.029 864.833 573.696C864.833 583.403 858.263 588.857 847.069 588.857H828.984V532.731H844.713C855.014 532.731 860.941 538.026 860.941 546.198C860.941 554.369 855.674 557.899 851.622 558.711V558.941ZM845.284 557.829C852.425 557.829 857.941 554.14 857.941 546.445C857.941 539.544 852.836 535.537 844.32 535.537H832.073V557.829H845.284ZM847.158 586.068C855.906 586.068 861.744 581.903 861.744 573.802C861.744 565.294 854.782 560.494 846.748 560.494H832.073V586.05L847.158 586.068Z"/>
</mask>
<path d="M851.622 558.941C855.319 559.251 858.755 560.957 861.214 563.704C863.674 566.451 864.97 570.029 864.833 573.696C864.833 583.403 858.263 588.857 847.069 588.857H828.984V532.731H844.713C855.014 532.731 860.941 538.026 860.941 546.198C860.941 554.369 855.674 557.899 851.622 558.711V558.941ZM845.284 557.829C852.425 557.829 857.941 554.14 857.941 546.445C857.941 539.544 852.836 535.537 844.32 535.537H832.073V557.829H845.284ZM847.158 586.068C855.906 586.068 861.744 581.903 861.744 573.802C861.744 565.294 854.782 560.494 846.748 560.494H832.073V586.05L847.158 586.068Z" fill="#94705A" stroke="#94705A" stroke-width="2" mask="url(#path-16-inside-13_0_1)"/>
</g>
<g id="A_3">
<mask id="path-17-inside-14_0_1" fill="white">
<path d="M879.404 571.525L872.738 588.857H869.52L891.305 532.731H894.594L916.291 588.857H913.055L906.388 571.525H879.404ZM898.749 551.722C896.663 546.427 893.056 536.173 892.967 536.084H892.808C892.808 536.173 889.041 546.268 887.026 551.651L880.448 568.718H905.204L898.749 551.722Z"/>
</mask>
<path d="M879.404 571.525L872.738 588.857H869.52L891.305 532.731H894.594L916.291 588.857H913.055L906.388 571.525H879.404ZM898.749 551.722C896.663 546.427 893.056 536.173 892.967 536.084H892.808C892.808 536.173 889.041 546.268 887.026 551.651L880.448 568.718H905.204L898.749 551.722Z" fill="#94705A" stroke="#94705A" stroke-width="2" mask="url(#path-17-inside-14_0_1)"/>
</g>
<g id="T_5">
<mask id="path-18-inside-15_0_1" fill="white">
<path d="M942.742 535.608V588.857H939.713V535.608H921.748V532.731H960.724V535.608H942.742Z"/>
</mask>
<path d="M942.742 535.608V588.857H939.713V535.608H921.748V532.731H960.724V535.608H942.742Z" fill="#94705A" stroke="#94705A" stroke-width="2" mask="url(#path-18-inside-15_0_1)"/>
</g>
<g id="T_6">
<mask id="path-19-inside-16_0_1" fill="white">
<path d="M986.833 535.608V588.857H983.743V535.608H965.401V532.731H1005.16V535.608H986.833Z"/>
</mask>
<path d="M986.833 535.608V588.857H983.743V535.608H965.401V532.731H1005.16V535.608H986.833Z" fill="#94705A" stroke="#94705A" stroke-width="2" mask="url(#path-19-inside-16_0_1)"/>
</g>
<g id="E_3">
<mask id="path-20-inside-17_0_1" fill="white">
<path d="M1009.83 532.731H1041.79V535.608H1012.77V557.74H1035.93V560.635H1012.77V585.962H1041.72V588.857H1009.83V532.731Z"/>
</mask>
<path d="M1009.83 532.731H1041.79V535.608H1012.77V557.74H1035.93V560.635H1012.77V585.962H1041.72V588.857H1009.83V532.731Z" fill="#94705A" stroke="#94705A" stroke-width="2" mask="url(#path-20-inside-17_0_1)"/>
</g>
<g id="R_3">
<mask id="path-21-inside-18_0_1" fill="white">
<path d="M1062.94 564.712C1061.76 564.8 1058.74 564.8 1057.71 564.8H1050.27V588.857H1047.25V532.731H1060.36C1072.1 532.731 1078.9 538.891 1078.9 549.163C1078.9 558.464 1073.67 563.035 1066.15 564.235L1079.21 588.857H1075.72L1062.94 564.712ZM1060.96 562.065C1069.67 562.065 1075.86 558.941 1075.86 549.163C1075.86 539.95 1069.83 535.608 1060.17 535.608H1050.27V562.082L1060.96 562.065Z"/>
</mask>
<path d="M1062.94 564.712C1061.76 564.8 1058.74 564.8 1057.71 564.8H1050.27V588.857H1047.25V532.731H1060.36C1072.1 532.731 1078.9 538.891 1078.9 549.163C1078.9 558.464 1073.67 563.035 1066.15 564.235L1079.21 588.857H1075.72L1062.94 564.712ZM1060.96 562.065C1069.67 562.065 1075.86 558.941 1075.86 549.163C1075.86 539.95 1069.83 535.608 1060.17 535.608H1050.27V562.082L1060.96 562.065Z" fill="#94705A" stroke="#94705A" stroke-width="2" mask="url(#path-21-inside-18_0_1)"/>
</g>
</g>
<g id="liquid-blocker">
<mask id="path-22-inside-19_0_1" fill="white">
<path d="M1161.39 552.831C1125.48 545.079 1126.29 543.566 1086.2 543.566C1046.11 543.566 1046.13 553.349 1006.04 553.349C965.947 553.349 965.947 543.566 925.87 543.566C885.793 543.566 885.78 553.349 845.69 553.349C805.6 553.349 796.647 536.418 760.597 544.072C742.955 547.813 776.522 557.061 776.324 565.613C776.126 574.165 753.704 574.05 753.506 582.602C753.308 591.154 775.73 591.235 775.532 599.799C775.334 608.362 752.912 608.253 752.714 616.805C752.516 625.357 750.918 625.777 768.56 629.575C804.213 637.276 803.381 638.841 843.181 638.841C882.98 638.841 882.98 629.057 922.78 629.057C962.58 629.057 962.593 638.841 1002.39 638.841C1042.19 638.841 1042.19 629.057 1082.01 629.057C1121.82 629.057 1130.73 645.937 1166.52 638.34C1184.16 634.6 1150.88 625.276 1151.36 616.73C1151.83 608.184 1174.27 608.42 1174.76 599.868C1175.25 591.316 1152.76 591.085 1153.23 582.551C1153.71 574.016 1171.72 575.04 1176.31 566.73C1180.36 559.53 1179.04 556.653 1161.39 552.831Z"/>
</mask>
<path d="M1161.39 552.831C1125.48 545.079 1126.29 543.566 1086.2 543.566C1046.11 543.566 1046.13 553.349 1006.04 553.349C965.947 553.349 965.947 543.566 925.87 543.566C885.793 543.566 885.78 553.349 845.69 553.349C805.6 553.349 796.647 536.418 760.597 544.072C742.955 547.813 776.522 557.061 776.324 565.613C776.126 574.165 753.704 574.05 753.506 582.602C753.308 591.154 775.73 591.235 775.532 599.799C775.334 608.362 752.912 608.253 752.714 616.805C752.516 625.357 750.918 625.777 768.56 629.575C804.213 637.276 803.381 638.841 843.181 638.841C882.98 638.841 882.98 629.057 922.78 629.057C962.58 629.057 962.593 638.841 1002.39 638.841C1042.19 638.841 1042.19 629.057 1082.01 629.057C1121.82 629.057 1130.73 645.937 1166.52 638.34C1184.16 634.6 1150.88 625.276 1151.36 616.73C1151.83 608.184 1174.27 608.42 1174.76 599.868C1175.25 591.316 1152.76 591.085 1153.23 582.551C1153.71 574.016 1171.72 575.04 1176.31 566.73C1180.36 559.53 1179.04 556.653 1161.39 552.831Z" fill="#E3CEC1" stroke="#94705A" stroke-width="2" mask="url(#path-22-inside-19_0_1)"/>
</g>
</g>
</g>
<g id="light-tan-wave">
<mask id="mask1_0_1" style="mask-type:alpha" maskUnits="userSpaceOnUse" x="828" y="532" width="252" height="57">
<g id="medium-tan-wave">
<mask id="mask2_0_1" style="mask-type:alpha" maskUnits="userSpaceOnUse" x="828" y="532" width="252" height="57">
<g id="batter_4">
<g id="B_4">
<mask id="path-23-inside-20_0_1" fill="white">
<path d="M851.622 558.941C855.319 559.251 858.755 560.957 861.214 563.704C863.674 566.451 864.97 570.029 864.833 573.696C864.833 583.403 858.263 588.857 847.069 588.857H828.984V532.731H844.713C855.014 532.731 860.941 538.026 860.941 546.198C860.941 554.369 855.674 557.899 851.622 558.711V558.941ZM845.284 557.829C852.425 557.829 857.941 554.14 857.941 546.445C857.941 539.544 852.836 535.537 844.32 535.537H832.073V557.829H845.284ZM847.158 586.068C855.906 586.068 861.744 581.903 861.744 573.802C861.744 565.294 854.782 560.494 846.748 560.494H832.073V586.05L847.158 586.068Z"/>
</mask>
<path d="M851.622 558.941C855.319 559.251 858.755 560.957 861.214 563.704C863.674 566.451 864.97 570.029 864.833 573.696C864.833 583.403 858.263 588.857 847.069 588.857H828.984V532.731H844.713C855.014 532.731 860.941 538.026 860.941 546.198C860.941 554.369 855.674 557.899 851.622 558.711V558.941ZM845.284 557.829C852.425 557.829 857.941 554.14 857.941 546.445C857.941 539.544 852.836 535.537 844.32 535.537H832.073V557.829H845.284ZM847.158 586.068C855.906 586.068 861.744 581.903 861.744 573.802C861.744 565.294 854.782 560.494 846.748 560.494H832.073V586.05L847.158 586.068Z" fill="#94705A" stroke="#E23939" stroke-width="2" mask="url(#path-23-inside-20_0_1)"/>
</g>
<g id="A_4">
<mask id="path-24-inside-21_0_1" fill="white">
<path d="M879.404 571.525L872.738 588.857H869.52L891.305 532.731H894.594L916.291 588.857H913.055L906.388 571.525H879.404ZM898.749 551.722C896.663 546.427 893.056 536.173 892.967 536.084H892.808C892.808 536.173 889.041 546.268 887.026 551.651L880.448 568.718H905.204L898.749 551.722Z"/>
</mask>
<path d="M879.404 571.525L872.738 588.857H869.52L891.305 532.731H894.594L916.291 588.857H913.055L906.388 571.525H879.404ZM898.749 551.722C896.663 546.427 893.056 536.173 892.967 536.084H892.808C892.808 536.173 889.041 546.268 887.026 551.651L880.448 568.718H905.204L898.749 551.722Z" fill="#94705A" stroke="#E23939" stroke-width="2" mask="url(#path-24-inside-21_0_1)"/>
</g>
<g id="T_7">
<mask id="path-25-inside-22_0_1" fill="white">
<path d="M942.742 535.608V588.857H939.713V535.608H921.748V532.731H960.724V535.608H942.742Z"/>
</mask>
<path d="M942.742 535.608V588.857H939.713V535.608H921.748V532.731H960.724V535.608H942.742Z" fill="#94705A" stroke="#E23939" stroke-width="2" mask="url(#path-25-inside-22_0_1)"/>
</g>
<g id="T_8">
<mask id="path-26-inside-23_0_1" fill="white">
<path d="M986.833 535.608V588.857H983.743V535.608H965.401V532.731H1005.16V535.608H986.833Z"/>
</mask>
<path d="M986.833 535.608V588.857H983.743V535.608H965.401V532.731H1005.16V535.608H986.833Z" fill="#94705A" stroke="#E23939" stroke-width="2" mask="url(#path-26-inside-23_0_1)"/>
</g>
<g id="E_4">
<mask id="path-27-inside-24_0_1" fill="white">
<path d="M1009.83 532.731H1041.79V535.608H1012.77V557.74H1035.93V560.635H1012.77V585.962H1041.72V588.857H1009.83V532.731Z"/>
</mask>
<path d="M1009.83 532.731H1041.79V535.608H1012.77V557.74H1035.93V560.635H1012.77V585.962H1041.72V588.857H1009.83V532.731Z" fill="#94705A" stroke="#E23939" stroke-width="2" mask="url(#path-27-inside-24_0_1)"/>
</g>
<g id="R_4">
<mask id="path-28-inside-25_0_1" fill="white">
<path d="M1062.94 564.712C1061.76 564.8 1058.74 564.8 1057.71 564.8H1050.27V588.857H1047.25V532.731H1060.36C1072.1 532.731 1078.9 538.891 1078.9 549.163C1078.9 558.464 1073.67 563.035 1066.15 564.235L1079.21 588.857H1075.72L1062.94 564.712ZM1060.96 562.065C1069.67 562.065 1075.86 558.941 1075.86 549.163C1075.86 539.95 1069.83 535.608 1060.17 535.608H1050.27V562.082L1060.96 562.065Z"/>
</mask>
<path d="M1062.94 564.712C1061.76 564.8 1058.74 564.8 1057.71 564.8H1050.27V588.857H1047.25V532.731H1060.36C1072.1 532.731 1078.9 538.891 1078.9 549.163C1078.9 558.464 1073.67 563.035 1066.15 564.235L1079.21 588.857H1075.72L1062.94 564.712ZM1060.96 562.065C1069.67 562.065 1075.86 558.941 1075.86 549.163C1075.86 539.95 1069.83 535.608 1060.17 535.608H1050.27V562.082L1060.96 562.065Z" fill="#94705A" stroke="#E23939" stroke-width="2" mask="url(#path-28-inside-25_0_1)"/>
</g>
</g>
</mask>
<g mask="url(#mask2_0_1)">
<g id="batter_5">
<g id="B_5">
<mask id="path-29-inside-26_0_1" fill="white">
<path d="M851.622 558.941C855.319 559.251 858.755 560.957 861.214 563.704C863.674 566.451 864.97 570.029 864.833 573.696C864.833 583.403 858.263 588.857 847.069 588.857H828.984V532.731H844.713C855.014 532.731 860.941 538.026 860.941 546.198C860.941 554.369 855.674 557.899 851.622 558.711V558.941ZM845.284 557.829C852.425 557.829 857.941 554.14 857.941 546.445C857.941 539.544 852.836 535.537 844.32 535.537H832.073V557.829H845.284ZM847.158 586.068C855.906 586.068 861.744 581.903 861.744 573.802C861.744 565.294 854.782 560.494 846.748 560.494H832.073V586.05L847.158 586.068Z"/>
</mask>
<path d="M851.622 558.941C855.319 559.251 858.755 560.957 861.214 563.704C863.674 566.451 864.97 570.029 864.833 573.696C864.833 583.403 858.263 588.857 847.069 588.857H828.984V532.731H844.713C855.014 532.731 860.941 538.026 860.941 546.198C860.941 554.369 855.674 557.899 851.622 558.711V558.941ZM845.284 557.829C852.425 557.829 857.941 554.14 857.941 546.445C857.941 539.544 852.836 535.537 844.32 535.537H832.073V557.829H845.284ZM847.158 586.068C855.906 586.068 861.744 581.903 861.744 573.802C861.744 565.294 854.782 560.494 846.748 560.494H832.073V586.05L847.158 586.068Z" fill="#94705A" stroke="#94705A" stroke-width="20" mask="url(#path-29-inside-26_0_1)"/>
</g>
<g id="A_5">
<mask id="path-30-inside-27_0_1" fill="white">
<path d="M879.404 571.525L872.738 588.857H869.52L891.305 532.731H894.594L916.291 588.857H913.055L906.388 571.525H879.404ZM898.749 551.722C896.663 546.427 893.056 536.173 892.967 536.084H892.808C892.808 536.173 889.041 546.268 887.026 551.651L880.448 568.718H905.204L898.749 551.722Z"/>
</mask>
<path d="M879.404 571.525L872.738 588.857H869.52L891.305 532.731H894.594L916.291 588.857H913.055L906.388 571.525H879.404ZM898.749 551.722C896.663 546.427 893.056 536.173 892.967 536.084H892.808C892.808 536.173 889.041 546.268 887.026 551.651L880.448 568.718H905.204L898.749 551.722Z" fill="#94705A" stroke="#94705A" stroke-width="20" mask="url(#path-30-inside-27_0_1)"/>
</g>
<g id="T_9">
<mask id="path-31-inside-28_0_1" fill="white">
<path d="M942.742 535.608V588.857H939.713V535.608H921.748V532.731H960.724V535.608H942.742Z"/>
</mask>
<path d="M942.742 535.608V588.857H939.713V535.608H921.748V532.731H960.724V535.608H942.742Z" fill="#94705A" stroke="#94705A" stroke-width="20" mask="url(#path-31-inside-28_0_1)"/>
</g>
<g id="T_10">
<mask id="path-32-inside-29_0_1" fill="white">
<path d="M986.833 535.608V588.857H983.743V535.608H965.401V532.731H1005.16V535.608H986.833Z"/>
</mask>
<path d="M986.833 535.608V588.857H983.743V535.608H965.401V532.731H1005.16V535.608H986.833Z" fill="#94705A" stroke="#94705A" stroke-width="20" mask="url(#path-32-inside-29_0_1)"/>
</g>
<g id="E_5">
<mask id="path-33-inside-30_0_1" fill="white">
<path d="M1009.83 532.731H1041.79V535.608H1012.77V557.74H1035.93V560.635H1012.77V585.962H1041.72V588.857H1009.83V532.731Z"/>
</mask>
<path d="M1009.83 532.731H1041.79V535.608H1012.77V557.74H1035.93V560.635H1012.77V585.962H1041.72V588.857H1009.83V532.731Z" fill="#94705A" stroke="#94705A" stroke-width="20" mask="url(#path-33-inside-30_0_1)"/>
</g>
<g id="R_5">
<mask id="path-34-inside-31_0_1" fill="white">
<path d="M1062.94 564.712C1061.76 564.8 1058.74 564.8 1057.71 564.8H1050.27V588.857H1047.25V532.731H1060.36C1072.1 532.731 1078.9 538.891 1078.9 549.163C1078.9 558.464 1073.67 563.035 1066.15 564.235L1079.21 588.857H1075.72L1062.94 564.712ZM1060.96 562.065C1069.67 562.065 1075.86 558.941 1075.86 549.163C1075.86 539.95 1069.83 535.608 1060.17 535.608H1050.27V562.082L1060.96 562.065Z"/>
</mask>
<path d="M1062.94 564.712C1061.76 564.8 1058.74 564.8 1057.71 564.8H1050.27V588.857H1047.25V532.731H1060.36C1072.1 532.731 1078.9 538.891 1078.9 549.163C1078.9 558.464 1073.67 563.035 1066.15 564.235L1079.21 588.857H1075.72L1062.94 564.712ZM1060.96 562.065C1069.67 562.065 1075.86 558.941 1075.86 549.163C1075.86 539.95 1069.83 535.608 1060.17 535.608H1050.27V562.082L1060.96 562.065Z" fill="#94705A" stroke="#94705A" stroke-width="20" mask="url(#path-34-inside-31_0_1)"/>
</g>
</g>
<path id="liquid-blocker_2" d="M1161.39 552.831C1125.48 545.079 1126.29 543.566 1086.2 543.566C1046.11 543.566 1046.13 553.349 1006.04 553.349C965.947 553.349 965.947 543.566 925.87 543.566C885.793 543.566 885.78 553.349 845.69 553.349C805.6 553.349 796.647 536.418 760.597 544.072C742.955 547.813 776.522 557.061 776.324 565.613C776.126 574.165 753.704 574.05 753.506 582.602C753.308 591.154 775.73 591.235 775.532 599.799C775.334 608.362 752.912 608.253 752.714 616.805C752.516 625.357 750.918 625.777 768.56 629.575C804.213 637.276 803.381 638.841 843.181 638.841C882.98 638.841 882.98 629.057 922.78 629.057C962.58 629.057 962.593 638.841 1002.39 638.841C1042.19 638.841 1042.19 629.057 1082.01 629.057C1121.82 629.057 1130.73 645.937 1166.52 638.34C1184.16 634.6 1150.88 625.276 1151.36 616.73C1151.83 608.184 1174.27 608.42 1174.76 599.868C1175.25 591.316 1152.76 591.085 1153.23 582.551C1153.71 574.016 1171.72 575.04 1176.31 566.73C1180.36 559.53 1179.04 556.653 1161.39 552.831Z" fill="#E3CEC1"/>
</g>
</g>
</mask>
<g mask="url(#mask1_0_1)">
<path id="liquid-blocker_3" d="M1162.95 572.403C1127.03 568.527 1127.85 567.77 1087.76 567.77C1047.67 567.77 1047.69 572.662 1007.6 572.662C967.506 572.662 967.506 567.77 927.429 567.77C887.352 567.77 887.339 572.662 847.248 572.662C807.158 572.662 798.205 564.196 762.156 568.024C744.514 569.894 778.081 574.518 777.883 578.794C777.685 583.07 755.263 583.013 755.065 587.289C754.867 591.565 777.289 591.605 777.091 595.887C776.892 600.169 754.47 600.114 754.272 604.39C754.074 608.666 752.477 608.876 770.118 610.775C805.772 614.625 804.94 615.408 844.739 615.408C884.539 615.408 880.778 604.353 920.578 604.353C960.377 604.353 1003.73 648.443 1007.6 623.935C1025.42 590.416 1128.32 666.809 1083.56 610.516C1123.38 610.516 1132.29 618.956 1168.08 615.158C1185.72 613.287 1152.44 608.626 1152.92 604.353C1153.39 600.079 1175.83 600.197 1176.32 595.921C1176.8 591.645 1154.32 591.53 1154.79 587.263C1155.27 582.995 1173.28 583.508 1177.87 579.353C1181.91 575.753 1180.59 574.314 1162.95 572.403Z" fill="#EAE0D3"/>
</g>
</g>
<path id="blocker-to-tea" d="M1146.17 517.753C1110.22 511.438 1111.04 510.206 1070.91 510.206C1030.79 510.206 1030.8 518.174 990.673 518.174C950.547 518.174 950.547 510.206 910.434 510.206C870.321 510.206 870.308 518.174 830.182 518.174C790.056 518.174 781.095 504.384 745.013 510.618C727.356 513.665 760.953 521.198 760.755 528.163C760.556 535.129 738.114 535.035 737.916 542.001C737.718 548.967 760.16 549.032 759.962 556.007C759.763 562.982 737.321 562.893 737.123 569.859C736.925 576.824 735.326 577.167 752.983 580.26C788.668 586.532 787.836 587.807 827.671 587.807C867.506 587.807 867.506 579.839 907.341 579.839C947.177 579.839 947.19 587.807 987.025 587.807C1026.86 587.807 1026.86 579.839 1066.71 579.839C1106.56 579.839 1115.48 593.587 1151.3 587.4C1168.95 584.353 1135.65 576.759 1136.12 569.798C1136.6 562.837 1159.05 563.029 1159.54 556.064C1160.03 549.098 1137.52 548.91 1138 541.959C1138.48 535.007 1156.5 535.842 1161.1 529.073C1165.15 523.209 1163.83 520.865 1146.17 517.753Z" fill="#FDF7F1"/>
<path id="bottom-of-hat" d="M781.597 508.61C770.152 529.67 781.597 559.479 799.229 573.333C836.963 603.009 915.751 569.77 977.729 543.604C1034.66 519.672 1067.22 496.564 1095.26 512.013C1115.49 523.182 1123.3 548.816 1123.96 548.444C1124.63 548.071 1116 511.721 1090.11 497.92C1060.66 482.178 1031.5 507.546 950.59 534.669C890.497 554.826 835.396 572.615 808.497 547.806C798.618 538.711 790.227 521.719 795.565 507.732C800.902 493.745 819.464 484.544 841.849 486.034C815.348 481.752 791.13 491.059 781.597 508.61Z" fill="#5FB2C4"/>
<path id="top-of-hat" d="M960 390.5C891.5 390.5 870.035 379.5 872 374C873.964 368.5 893.5 359 960 359C1026.5 359 1047 369 1047 374C1047 379 1028.5 390.5 960 390.5Z" fill="#5FB2C4" stroke="#5FB2C4"/>
<path id="ball" d="M949 561.613C957.623 561.613 964.613 554.623 964.613 546C964.613 537.377 957.623 530.387 949 530.387C940.377 530.387 933.387 537.377 933.387 546C933.387 554.623 940.377 561.613 949 561.613Z" fill="#5FB2C4"/>
<rect id="rectangle-fill" x="845" y="337" width="202" height="59" fill="#FDF7F1"/>
<path id="blue-dot" d="M1025.5 421C1027.43 421 1029 419.433 1029 417.5C1029 415.567 1027.43 414 1025.5 414C1023.57 414 1022 415.567 1022 417.5C1022 419.433 1023.57 421 1025.5 421Z" fill="#5FB2C4"/>
<path id="yellow-dot" d="M1025.5 421C1027.43 421 1029 419.433 1029 417.5C1029 415.567 1027.43 414 1025.5 414C1023.57 414 1022 415.567 1022 417.5C1022 419.433 1023.57 421 1025.5 421Z" fill="#F4CF7E"/>
<path id="stroke-2" d="M841.919 485.862C836.401 484.926 830.798 484.602 825.21 484.894C821.977 485.083 818.757 485.458 815.567 486.02C812.178 486.666 794.401 490.08 784.444 504.479C771.71 522.886 780.897 546.026 782.348 549.707C784.14 554.225 789.509 566.01 801.786 574.719C825.76 591.743 858.156 584.386 885.069 578.269C896.896 575.582 905.8 572.484 920.823 567.225C937.95 561.24 950.537 555.829 967.964 548.292C989.727 538.884 1000.69 534.351 1015.5 526.993C1016.55 526.467 1029.74 519.92 1047.72 513.183C1057.31 509.596 1066.43 506.719 1077.98 507.661C1081.84 507.854 1085.65 508.572 1089.32 509.796C1106.51 515.733 1115.26 532.326 1119.38 540.136C1120.81 542.847 1122.09 545.635 1123.22 548.487" stroke="#5FB2C4" stroke-width="3" stroke-miterlimit="10"/>
<path id="stroke-1" d="M1123.24 548.466C1120.18 534.314 1112.97 513.656 1094.47 500.572C1092.92 499.437 1091.28 498.415 1089.59 497.511C1071.47 487.945 1050.73 495.607 1023.29 506.293C986.008 520.809 982.388 522.981 962.689 530.385C957.451 532.352 939.469 538.164 903.501 549.781C903.501 549.781 875.609 558.795 849.608 559.994C845.327 560.209 841.036 560.003 836.796 559.379C830.552 558.458 820.705 557.007 811.376 549.581C805.744 544.985 801.288 539.103 798.381 532.426C796.118 527.246 792.771 519.583 795.129 510.785C796.867 504.279 800.89 500.235 803.263 497.921C816.662 484.773 836.571 485.504 841.929 485.862" stroke="#5FB2C4" stroke-width="3" stroke-miterlimit="10"/>
<path id="top" d="M1070.43 368.037C1070.4 371.191 1069.7 378.129 1062.92 388.943C1059.17 394.931 1057.04 396.559 1054.12 400.41C1052.85 402.12 1051.68 403.896 1050.6 405.731C1049.07 408.229 1047.69 410.817 1046.46 413.481C1040.81 412.574 1035.1 412.092 1029.38 412.04C1023.37 412.002 1017.36 412.36 1011.4 413.112C1009.73 409.549 1008.18 406.828 1007.21 405.226C1006 403.176 1004.81 401.486 1004.81 401.486C1004.46 401.003 1004.09 400.486 1003.67 399.951C1000.75 396.122 998.624 394.51 994.788 388.496C992.509 384.911 987.735 377.432 987.135 367.621C987.065 366.29 987.075 364.956 987.168 363.627C987.206 358.861 1005.9 355.206 1028.83 355.391C1051.77 355.576 1070.4 359.584 1070.36 364.299L1070.36 364.162C1070.46 365.45 1070.49 366.745 1070.43 368.037Z" fill="#F4CF7E"/>
<path id="handle" d="M1082.5 375.5C1082.3 374.46 1081.61 373.41 1081.06 372.509C1080.55 371.705 1079.91 371 1079.15 370.43C1078.4 369.905 1077.55 369.536 1076.66 369.345C1075.7 369.152 1074.71 369.144 1073.75 369.321C1073 369.444 1072.3 369.799 1071.76 370.337C1071.57 370.533 1071.43 370.765 1071.34 371.018C1071.24 371.271 1071.2 371.541 1071.2 371.812C1071.21 372.082 1071.27 372.349 1071.39 372.595C1071.5 372.841 1071.66 373.063 1071.85 373.247C1072 373.363 1072.18 373.444 1072.37 373.484C1072.55 373.523 1072.75 373.52 1072.93 373.475C1073.27 373.415 1073.58 373.231 1073.79 372.958C1073.9 372.826 1073.97 372.67 1074.01 372.502C1074.04 372.335 1074.04 372.161 1074 371.996C1073.97 371.851 1073.91 371.714 1073.83 371.588C1073.75 371.455 1073.63 371.353 1073.49 371.298C1073.74 370.968 1074.07 370.708 1074.44 370.545C1074.86 370.372 1075.28 370.24 1075.72 370.149C1076.35 370.021 1077 370.056 1077.62 370.249C1078.28 370.451 1078.9 370.796 1079.41 371.261C1080 371.796 1080.49 372.429 1080.87 373.134C1081.32 373.945 1081.84 374.582 1082 375.5C1082.35 376.977 1082.05 378.774 1081.51 380.192C1080.99 381.478 1080.19 382.628 1079.16 383.556C1078.1 384.533 1076.89 385.324 1075.57 385.895C1074.27 386.477 1072.92 386.931 1071.54 387.25C1069.58 387.645 1067.67 388.253 1065.85 389.064C1064.37 389.704 1063.01 390.591 1061.82 391.687C1060.81 392.601 1060.04 393.759 1059.59 395.052C1059.15 396.353 1059.07 397.75 1059.35 399.093C1059.53 400.234 1060 401.202 1060.83 402C1061.18 402.328 1061.67 402.647 1062.14 402.772C1062.6 402.897 1063.08 402.905 1063.55 402.797C1063.91 402.774 1064.25 402.653 1064.55 402.447C1064.84 402.241 1065.08 401.957 1065.23 401.627C1065.5 400.969 1065.57 400.246 1065.43 399.548C1065.09 399.864 1064.72 400.149 1064.34 400.402C1063.89 400.631 1063.42 400.793 1062.93 400.881C1062.57 400.986 1062.22 400.948 1061.85 400.881C1061.49 400.813 1061.12 400.717 1060.83 400.492C1060.3 400.071 1059.95 399.465 1059.84 398.792C1059.63 397.954 1059.77 396.835 1060 396C1060.25 395.238 1060.53 394.78 1061.08 394.202C1061.68 393.576 1062.37 393.045 1063.13 392.628C1063.98 392.152 1064.87 391.735 1065.78 391.381C1066.73 391.017 1067.72 390.669 1068.74 390.373L1071.79 389.518C1073.89 389.001 1075.9 388.125 1077.72 386.927C1079.06 386.016 1080.2 384.84 1081.09 383.47C1081.83 382.28 1082.37 380.904 1082.5 379.5C1082.5 379.5 1083 377 1082.5 375.5Z" fill="#F4CF7E"/>
<path id="bottom" d="M1078.65 428.538C1078.54 429.35 1078.22 430.125 1077.72 430.796C1077.22 431.467 1076.55 432.014 1075.78 432.389C1069.04 427.857 1050.75 424.485 1029.27 424.311C1007.79 424.138 989.466 427.166 982.641 431.637C981.871 431.249 981.213 430.691 980.723 430.013C980.234 429.334 979.926 428.554 979.828 427.739C979.838 427.272 979.957 426.812 980.178 426.392C982.483 421.869 996.056 418.215 1014.11 416.995C1018.89 416.684 1023.99 416.519 1029.35 416.562C1034.28 416.602 1039.02 416.815 1043.5 417.168C1061.99 418.604 1075.93 422.497 1078.29 427.105C1078.52 427.552 1078.65 428.041 1078.65 428.538V428.538Z" fill="#F4CF7E"/>
<path id="tea" d="M971.886 384.571C971.886 384.571 970.709 381.002 967.962 391.709C965.215 402.416 965.607 414.709 967.57 420.26L996.608 507.501V509.087L997 553.5V588" stroke="#987258" stroke-width="2"/>
<path id="sand-color-tea" d="M971.886 384.571C971.886 384.571 970.709 381.002 967.962 391.709C965.215 402.416 965.607 414.709 967.57 420.26L996.608 507.501V509.087L997 553.5V588" stroke="#FDF7F1" stroke-width="4"/>
<path id="top-stroke" d="M982.536 431.922C980.7 430.733 979.695 429.448 979.695 428.099C979.697 427.631 979.815 427.17 980.039 426.75C982.296 422.265 995.806 418.554 1013.86 417.173C1018.64 416.822 1023.72 416.623 1029 416.623C1033.91 416.623 1038.64 416.798 1043.12 417.109C1061.59 418.386 1075.52 422.121 1077.91 426.686C1078.15 427.126 1078.27 427.608 1078.28 428.099C1078.28 429.448 1077.28 430.733 1075.45 431.922" stroke="#F4CF7E" stroke-width="1.63" stroke-miterlimit="10"/>
<path id="bottom-stroke" d="M1075.9 432.449C1069.04 427.749 1050.56 424.365 1028.88 424.365C1007.19 424.365 988.725 427.749 981.858 432.449" stroke="#F4CF7E" stroke-width="1.69" stroke-miterlimit="10"/>
<path id="back-side-stroke" d="M1073.67 371.132C1073.93 371.305 1074.12 371.571 1074.2 371.878C1074.25 372.155 1074.21 372.439 1074.08 372.69C1073.96 372.94 1073.76 373.145 1073.51 373.274C1073.24 373.403 1072.95 373.453 1072.66 373.418C1072.37 373.383 1072.1 373.264 1071.87 373.075C1071.16 372.506 1071.17 371.384 1071.53 370.686C1071.8 370.196 1072.24 369.817 1072.76 369.613C1073.94 369.066 1075.25 368.88 1076.54 369.076C1078.13 369.356 1079.59 370.142 1080.71 371.32C1083.5 374.251 1083.57 379.26 1081.84 382.636C1080.99 384.218 1079.78 385.582 1078.32 386.625C1077.1 387.505 1075.77 388.209 1074.35 388.719C1072.75 389.39 1072.63 389.255 1068.47 390.614C1066.68 391.154 1064.95 391.89 1063.31 392.809C1062.65 393.174 1062.04 393.646 1061.53 394.205C1060.8 394.926 1060.3 395.844 1060.09 396.846C1060.03 397.179 1059.67 399.343 1061.03 400.438C1061.42 400.737 1061.88 400.923 1062.37 400.975C1064.23 401.238 1065.66 399.378 1065.83 399.174" stroke="#F4CF7E" stroke-width="0.7" stroke-miterlimit="10"/>
<path id="under-side-stroke" d="M1073.32 371.421C1073.8 370.828 1074.46 370.396 1075.2 370.184C1076.07 369.972 1076.98 370.041 1077.8 370.38C1078.82 370.739 1079.72 371.372 1080.4 372.207C1082.56 374.686 1082.09 378.079 1082.06 378.317C1081.43 382.565 1077.32 385.219 1075.05 386.058C1074.44 386.287 1072.9 386.78 1071.5 387.194C1069.5 387.778 1069.44 387.725 1068.45 388.033C1066.07 388.687 1063.88 389.868 1062.04 391.484C1061.18 392.194 1060.46 393.065 1059.94 394.049C1059.85 394.224 1058.43 397.165 1059.69 400.112C1059.99 400.861 1060.47 401.523 1061.1 402.034C1061.7 402.559 1062.49 402.841 1063.29 402.825C1063.89 402.808 1064.47 402.58 1064.91 402.182C1065.24 401.822 1065.47 401.379 1065.57 400.9C1065.66 400.422 1065.67 399.957 1065.5 399.5" stroke="#F4CF7E" stroke-width="1.15" stroke-miterlimit="10"/>
<path id="A_6" d="M940.656 491.61L935.157 509H918L947.441 422H967.576L997 509H979.42L973.836 491.61H940.656ZM962.652 455.936C960.283 448.346 957.661 439.778 957.576 439.643H957.204C957.085 439.778 954.463 448.228 951.976 455.801L945.394 476.43H969.082L962.652 455.936Z" fill="#5FB2C4"/>
</g>
</svg>
